<svg width="27" height="33" viewBox="0 0 27 33" fill="none" xmlns="http://www.w3.org/2000/svg">
<rect x="5.73805" y="4.66605" width="15.9112" height="21.6674" rx="1.8339" fill="white" stroke="white" stroke-width="1.3322"/>
<mask id="path-2-inside-1_6_4180" fill="white">
<path d="M14.533 0C16.0427 0.000225638 17.291 1.1157 17.5007 2.56735C17.2303 2.50966 16.9495 2.47946 16.6619 2.47946H7.30556C5.0966 2.47963 3.30562 4.2704 3.30562 6.4794V20.7946C3.30563 21.2982 3.4004 21.7795 3.57026 22.2233H2.99996C1.34313 22.2233 0 20.8802 0 19.2234V2.99996C0 1.34313 1.34313 0 2.99996 0H14.533Z"/>
</mask>
<path d="M14.533 0C16.0427 0.000225638 17.291 1.1157 17.5007 2.56735C17.2303 2.50966 16.9495 2.47946 16.6619 2.47946H7.30556C5.0966 2.47963 3.30562 4.2704 3.30562 6.4794V20.7946C3.30563 21.2982 3.4004 21.7795 3.57026 22.2233H2.99996C1.34313 22.2233 0 20.8802 0 19.2234V2.99996C0 1.34313 1.34313 0 2.99996 0H14.533Z" fill="white"/>
<path d="M14.533 0L14.5333 -1.99828H14.533V0ZM17.5007 2.56735L17.0838 4.52165L19.8885 5.11998L19.4785 2.28162L17.5007 2.56735ZM7.30556 2.47946V0.48118H7.30541L7.30556 2.47946ZM3.30562 20.7946H1.30734V20.7947L3.30562 20.7946ZM3.57026 22.2233V24.2216H6.47465L5.43654 21.5091L3.57026 22.2233ZM2.99996 22.2233L2.99996 24.2216H2.99996V22.2233ZM14.533 0L14.5327 1.99828C15.0343 1.99835 15.4531 2.36947 15.523 2.85307L17.5007 2.56735L19.4785 2.28162C19.1289 -0.138062 17.0511 -1.9979 14.5333 -1.99828L14.533 0ZM17.5007 2.56735L17.9176 0.613045C17.5102 0.526117 17.0896 0.48118 16.6619 0.48118V2.47946V4.47774C16.8094 4.47774 16.9505 4.4932 17.0838 4.52165L17.5007 2.56735ZM16.6619 2.47946V0.48118H7.30556V2.47946V4.47774H16.6619V2.47946ZM7.30556 2.47946L7.30541 0.48118C3.9931 0.481433 1.30734 3.16663 1.30734 6.4794H3.30562H5.3039C5.3039 5.37417 6.2001 4.47782 7.30572 4.47774L7.30556 2.47946ZM3.30562 6.4794H1.30734V20.7946H3.30562H5.3039V6.4794H3.30562ZM3.30562 20.7946L1.30734 20.7947C1.30736 21.5511 1.45003 22.274 1.70399 22.9376L3.57026 22.2233L5.43654 21.5091C5.35078 21.285 5.3039 21.0453 5.3039 20.7946L3.30562 20.7946ZM3.57026 22.2233V20.2251H2.99996V22.2233V24.2216H3.57026V22.2233ZM2.99996 22.2233L2.99996 20.2251C2.44675 20.2251 1.99828 19.7766 1.99828 19.2234H0H-1.99828C-1.99828 21.9838 0.239509 24.2216 2.99996 24.2216L2.99996 22.2233ZM0 19.2234H1.99828V2.99996H0H-1.99828V19.2234H0ZM0 2.99996H1.99828C1.99828 2.44675 2.44675 1.99828 2.99996 1.99828V0V-1.99828C0.239509 -1.99828 -1.99828 0.239509 -1.99828 2.99996H0ZM2.99996 0V1.99828H14.533V0V-1.99828H2.99996V0Z" fill="white" mask="url(#path-2-inside-1_6_4180)"/>
<rect x="6.99991" y="16.428" width="1.85712" height="12.9998" rx="0.928571" transform="rotate(-90 6.99991 16.428)" fill="black"/>
<rect x="14.4278" y="21.9997" width="1.85712" height="12.9998" rx="0.928571" transform="rotate(180 14.4278 21.9997)" fill="black"/>
</svg>
